<svg id="visual" viewBox="0 0 auto 540" xmlns="http://www.w3.org/2000/svg" xmlns:xlink="http://www.w3.org/1999/xlink" version="1.1"><path d="M0 44L16 45.7C32 47.3 64 50.7 96 48.3C128 46 160 38 192 40C224 42 256 54 288 53.8C320 53.7 352 41.3 384 40.8C416 40.3 448 51.7 480 60C512 68.3 544 73.7 576 68.3C608 63 640 47 672 38.8C704 30.7 736 30.3 768 38.5C800 46.7 832 63.3 864 69.2C896 75 928 70 944 67.5L960 65L960 0L944 0C928 0 896 0 864 0C832 0 800 0 768 0C736 0 704 0 672 0C640 0 608 0 576 0C544 0 512 0 480 0C448 0 416 0 384 0C352 0 320 0 288 0C256 0 224 0 192 0C160 0 128 0 96 0C64 0 32 0 16 0L0 0Z" fill="#93c5fd" stroke-linecap="round" stroke-linejoin="miter"></path></svg>