<svg id="visual" viewBox="0 0 900 600" width="900" height="600" xmlns="http://www.w3.org/2000/svg" xmlns:xlink="http://www.w3.org/1999/xlink" version="1.1"><rect x="0" y="0" width="900" height="600" fill="#002233"></rect><path d="M0 153L21.5 156.2C43 159.3 86 165.7 128.8 167C171.7 168.3 214.3 164.7 257.2 164C300 163.3 343 165.7 385.8 152C428.7 138.3 471.3 108.7 514.2 114.8C557 121 600 163 642.8 177.5C685.7 192 728.3 179 771.2 182C814 185 857 204 878.5 213.5L900 223L900 0L878.5 0C857 0 814 0 771.2 0C728.3 0 685.7 0 642.8 0C600 0 557 0 514.2 0C471.3 0 428.7 0 385.8 0C343 0 300 0 257.2 0C214.3 0 171.7 0 128.8 0C86 0 43 0 21.5 0L0 0Z" fill="#0066FF" stroke-linecap="round" stroke-linejoin="miter"></path></svg>